<svg xmlns="http://www.w3.org/2000/svg" viewBox="0 0 64 64" role="img" aria-labelledby="title desc">
  <title id="title">Docker</title>
  <desc id="desc">Icona estilitzada de Docker</desc>
  <rect x="2" y="2" width="60" height="60" rx="14" fill="#1d63ed"/>
  <g fill="#ffffff">
    <rect x="16" y="20" width="8" height="8" rx="1"/>
    <rect x="26" y="20" width="8" height="8" rx="1"/>
    <rect x="36" y="20" width="8" height="8" rx="1"/>
    <rect x="46" y="20" width="8" height="8" rx="1"/>
    <rect x="26" y="30" width="8" height="8" rx="1"/>
    <rect x="36" y="30" width="8" height="8" rx="1"/>
    <path d="M10 42c1 6 7 10 16 10h18c6 0 10-3 12-8-3 1-6 0-8-2-2 1-5 2-8 2H26c-4 0-8-1-11-2-2 2-3 2-5 0z"/>
  </g>
</svg>
