<svg xmlns="http://www.w3.org/2000/svg" viewBox="0 0 64 64" role="img" aria-labelledby="title desc">
  <title id="title">R</title>
  <desc id="desc">Icona estilitzada del llenguatge R</desc>
  <rect x="2" y="2" width="60" height="60" rx="14" fill="#2f6db2"/>
  <ellipse cx="27" cy="31" rx="16" ry="11" fill="#d8e1ee"/>
  <ellipse cx="27" cy="31" rx="11" ry="7" fill="#b9c6d8"/>
  <path d="M33 20h10c5 0 9 3 9 8 0 3-2 5-4 6 2 1 3 3 4 6l1 4h-7l-1-3c-1-3-2-4-5-4h-2v7h-6V20zm6 5v7h4c2 0 4-1 4-3s-2-4-4-4h-4z" fill="#ffffff"/>
</svg>
